# AST/ASF file generated using VICON BodyLanguage
# -----------------------------------------------
:version 1.10
:name VICON
:units
  mass 1.0
  length 0.45
  angle deg
:documentation
   .ast/.asf automatically generated from VICON data using
   VICON BodyBuilder and BodyLanguage model FoxedUp or BRILLIANT.MOD
:root
   order TX TY TZ RX RY RZ
   axis XYZ
   position 0 0 0  
   orientation 0 0 0 
:bonedata
  begin
     id 1 
     name lhipjoint
     direction 0.610259 -0.730986 0.305356 
     length 2.50941 
     axis 0 0 0  XYZ
  end
  begin
     id 2 
     name lfemur
     direction 0.34202 -0.939693 0  
     length 7.48822  
     axis 0 0 20  XYZ
    dof rx ry rz
    limits (-160.0 20.0)
           (-70.0 70.0)
           (-60.0 70.0)
  end
  begin
     id 3 
     name ltibia
     direction 0.34202 -0.939693 0   
     length 7.60141   
     axis 0 0 20   XYZ
    dof rx
    limits (-10.0 170.0)
  end
  begin
     id 4 
     name lfoot
     direction 0.0673488 -0.185039 0.980421   
     length 2.04049   
     axis -90 7.62852e-016 20   XYZ
    dof rx rz
    limits (-45.0 90.0)
           (-70.0 20.0)
  end
  begin
     id 5 
     name ltoes
     direction 1.5356e-011 -4.21729e-011 1   
     length 1.02897   
     axis -90 7.62852e-016 20   XYZ
    dof rx
    limits (-90.0 20.0)
  end
  begin
     id 6 
     name rhipjoint
     direction -0.57612 -0.754205 0.315056   
     length 2.43216  
     axis 0 0 0  XYZ 
  end
  begin
     id 7 
     name rfemur
     direction -0.34202 -0.939693 0   
     length 7.42799   
     axis 0 0 -20   XYZ
    dof rx ry rz
    limits (-160.0 20.0)
           (-70.0 70.0)
           (-70.0 60.0)
  end
  begin
     id 8 
     name rtibia
     direction -0.34202 -0.939693 0   
     length 7.69484   
     axis 0 0 -20   XYZ
    dof rx
    limits (-10.0 170.0)
 end
 begin
     id 9 
     name rfoot
     direction -0.111837 -0.30727 0.945028   
     length 2.15769  
     axis -90 -7.62852e-016 -20   XYZ
    dof rx rz
    limits (-45.0 90.0)
           (-20.0 70.0)
  end
  begin
     id 10 
     name rtoes
     direction -1.53539e-011 -4.21878e-011 1   
     length 1.07391   
     axis -90 -7.62852e-016 -20   XYZ
    dof rx
    limits (-90.0 20.0)
  end
  begin
     id 11 
     name lowerback
     direction 0.00552624 0.990109 -0.140195   
     length 2.12403   
     axis 0 0 0   XYZ
    dof rx ry rz
    limits (-20.0 45.0)
           (-30.0 30.0)
           (-30.0 30.0)
  end
  begin
     id 12 
     name upperback
     direction 0.00361898 0.999976 -0.00584723   
     length 2.13232   
     axis 0 0 0   XYZ
    dof rx ry rz
    limits (-20.0 45.0)
           (-30.0 30.0)
           (-30.0 30.0)
  end
  begin
     id 13 
     name thorax
     direction -0.000331275 0.998253 0.0590847   
     length 2.17688   
     axis 0 0 0   XYZ
    dof rx ry rz
    limits (-20.0 45.0)
           (-30.0 30.0)
           (-30.0 30.0)
  end
  begin
     id 14 
     name lowerneck
     direction -0.0561561 0.979832 0.19177   
     length 1.64159   
     axis 0 0 0   XYZ
    dof rx ry rz
    limits (-20.0 45.0)
           (-30.0 30.0)
           (-30.0 30.0)
  end
  begin
     id 15 
     name upperneck
     direction 0.0827153 0.979385 -0.184293   
     length 1.68939   
     axis 0 0 0   XYZ
    dof rx ry rz
    limits (-20.0 45.0)
           (-30.0 30.0)
           (-30.0 30.0)
  end
  begin
     id 16
     name head
     direction 0.0278583 0.995936 -0.0856488  
     length 1.70207  
     axis 0 0 0   XYZ
    dof rx ry rz
    limits (-20.0 45.0)
           (-30.0 30.0)
           (-30.0 30.0)
  end
  begin
     id 17 
     name lclavicle
     direction 0.950993 0.301131 -0.0702275  
     length 3.41652  
     axis 0 0 0   XYZ
    dof ry rz
    limits (-20.0 10.0)
           (0.0 20.0)
  end
  begin
     id 18 
     name lhumerus
     direction 1 -4.48981e-011 -3.9662e-029   
     length 5.32955   
     axis 180 -30 -90   XYZ
    dof rx ry rz
    limits (-60.0 90.0)
           (-90.0 90.0)
           (-90.0 90.0)
  end
  begin
     id 19
     name lradius
     direction 1 -4.48925e-011 -9.0549e-027   
     length 3.69232   
     axis 180 -30 -90   XYZ
    dof rx
    limits (-10.0 170.0)
  end
  begin
     id 20
     name lwrist
     direction 1 -4.49007e-011 -1.49005e-026   
     length 1.84616   
     axis 9.0955e-015 90 90   XYZ
    dof ry
    limits (-180.0 0.0)
 end
  begin
     id 21 
     name lhand
     direction 1 -4.49016e-011 -2.98023e-026   
     length 0.536598   
     axis 1.90115e-014 90 90   XYZ
    dof rx rz
    limits (-90.0 90.0)
           (-45.0 45.0)
  end
  begin
     id 22 
     name lfingers
     direction 1 -4.48924e-011 -5.9578e-026   
     length 0.432619   
     axis 3.80223e-014 90 90   XYZ
    dof rx
    limits (0.0 90.0)
  end
  begin
     id 23
     name lthumb
     direction 0.707107 -6.34947e-011 0.707107   
     length 0.621157   
     axis -90 45 -3.84942e-014   XYZ
    dof rx rz
    limits (-45.0 45.0)
           (-45.0 45.0)
  end
  begin
     id 24 
     name rclavicle
     direction -0.955495 0.276497 -0.102848   
     length 3.36357  
     axis 0 0 0   XYZ 
    dof ry rz
    limits (-10.0 20.0)
           (-20.0 0.0)
  end
  begin
     id 25 
     name rhumerus
     direction -1 -4.48961e-011 3.30983e-027  
     length 5.23431   
     axis 180 30 90   XYZ
    dof rx ry rz
    limits (-90.0 60.0)
           (-90.0 90.0)
           (-90.0 90.0)
  end
  begin
     id 26 
     name rradius
     direction -1 -4.48965e-011 -6.63263e-027   
     length 3.55301   
     axis 180 30 90   XYZ
    dof rx
    limits (-10.0 170.0)
  end
  begin
     id 27 
     name rwrist
     direction -1 -4.48942e-011 -1.48958e-026   
     length 1.77651   
     axis 9.0955e-015 -90 -90   XYZ
    dof ry
    limits (-180.0 0.0)
  end
  begin
     id 28
     name rhand
     direction -1 -4.48977e-011 -2.97966e-026   
     length 0.772522   
     axis 1.90115e-014 -90 -90   XYZ
    dof rx rz
    limits (-90.0 90.0)
           (-45.0 45.0)
  end
  begin
     id 29
     name rfingers
     direction -1 -4.49135e-011 -5.96389e-026   
     length 0.622827   
     axis 3.80223e-014 -90 -90   XYZ
    dof rx
    limits (0.0 90.0)
  end
  begin
     id 30
     name rthumb
     direction -0.707107 -6.34969e-011 0.707107   
     length 0.894259   
     axis -90 -45 3.84942e-014   XYZ
    dof rx rz
    limits (-45.0 45.0)
           (-45.0 45.0)
  end
:hierarchy
  begin
    root lhipjoint rhipjoint lowerback
    lhipjoint lfemur
    lfemur ltibia
    ltibia lfoot
    lfoot ltoes
    rhipjoint rfemur
    rfemur rtibia
    rtibia rfoot
    rfoot rtoes
    lowerback upperback
    upperback thorax
    thorax lowerneck lclavicle rclavicle
    lowerneck upperneck
    upperneck head
    lclavicle lhumerus
    lhumerus lradius
    lradius lwrist
    lwrist lhand lthumb
    lhand lfingers
    rclavicle rhumerus
    rhumerus rradius
    rradius rwrist
    rwrist rhand rthumb
    rhand rfingers
  end

#!OML:ASF F:\VICON\USERDATA\INSTALL\rory3\rory3.ASF
:FULLY-SPECIFIED
:DEGREES
20
root 8.28447 17.7495 -13.3455 210.79 84.0934 213.436
lowerback 11.2107 -0.382758 -1.9854
upperback 0.92591 -0.663589 0.889607
thorax -5.28634 -0.254064 2.15303
lowerneck -5.32505 -13.3355 -15.6852
upperneck 32.7024 -19.7758 12.8681
head 15.4126 -8.74674 4.84502
rclavicle -9.41742e-015 7.95139e-016
rhumerus -32.5344 -15.3313 -82.7774
rradius 29.6741
rwrist 9.00605
rhand -16.4407 9.43072
rfingers 7.12502
rthumb 9.77502 -20.3224
lclavicle -9.41742e-015 7.95139e-016
lhumerus -36.4269 14.3184 73.0239
lradius 31.2664
lwrist -4.13631
lhand -20.3504 27.7198
lfingers 7.12502
lthumb 6.00157 57.6148
rfemur -4.4891 1.86977 16.871
rtibia 27.5826
rfoot -15.03 -4.87252
rtoes -3.21096
lfemur -4.12266 -10.7831 -2.73927
ltibia 28.8123
lfoot -3.92737 8.3751
ltoes -20.8565
21
root 8.28412 17.7665 -13.2422 211.555 84.0409 214.171
lowerback 11.2564 -0.32832 -1.86201
upperback 0.968464 -0.572927 0.923606
thorax -5.27266 -0.211716 2.10508
lowerneck -5.27714 -13.2622 -15.6604
upperneck 32.5569 -19.7044 13.0227
head 15.3358 -8.70262 4.92161
rclavicle 4.79568e-015 -6.36111e-015
rhumerus -32.3548 -14.9469 -82.8718
rradius 29.7142
rwrist 8.80393
rhand -16.6271 9.34891
rfingers 7.12502
rthumb 9.59516 -20.4126
lclavicle 4.79568e-015 -6.36111e-015
lhumerus -36.3663 13.5465 73.6563
lradius 31.8853
lwrist -3.17212
lhand -20.6705 28.2544
lfingers 7.12502
lthumb 5.69252 58.1579
rfemur -4.31849 1.84804 17.3531
rtibia 27.1395
rfoot -14.9307 -4.85036
rtoes -2.61204
lfemur -4.62528 -10.9404 -2.51099
ltibia 29.6195
lfoot -3.20936 8.91727
ltoes -19.1388
22
root 8.28769 17.7961 -13.1427 212.444 83.9684 215.094
lowerback 11.2966 -0.269943 -1.73605
upperback 1.03521 -0.47639 0.948981
thorax -5.23052 -0.166873 2.04535
lowerneck -5.32698 -13.348 -15.6248
upperneck 32.5271 -19.8337 13.0266
head 15.3552 -8.75131 4.8848
rclavicle 1.21756e-015 -9.93923e-015
rhumerus -32.1954 -14.5703 -82.9994
rradius 29.7603
rwrist 8.55267
rhand -16.3389 9.71968
rfingers 7.12502
rthumb 9.87324 -20.0288
lclavicle 1.21756e-015 -9.93923e-015
lhumerus -36.2786 13.3358 74.0196
lradius 32.2714
lwrist -3.3452
lhand -20.4835 28.4426
lfingers 7.12502
lthumb 5.87304 58.3412
rfemur -4.11083 1.66756 17.8694
rtibia 26.7759
rfoot -14.8096 -4.90171
rtoes -3.56557
lfemur -5.00897 -11.0838 -2.33729
ltibia 30.3588
lfoot -2.61658 9.52959
ltoes -16.5108
23
root 8.2943 17.824 -13.0436 214.45 83.7674 217.159
lowerback 11.3578 -0.252508 -1.46163
upperback 1.06812 -0.413194 1.02742
thorax -5.23448 -0.140337 1.963
lowerneck -5.25543 -13.304 -15.4014
upperneck 32.4324 -19.7734 12.9621
head 15.2372 -8.7116 4.83747
rclavicle -1.19768e-014 9.54166e-015
rhumerus -32.1146 -13.9637 -83.159
rradius 29.8305
rwrist 8.07155
rhand -16.168 9.8357
rfingers 7.12502
rthumb 10.0381 -19.9049
lclavicle -1.19768e-014 9.54166e-015
lhumerus -36.2479 13.293 74.29
lradius 32.5152
lwrist -3.94837
lhand -20.3774 28.3117
lfingers 7.12502
lthumb 5.97547 58.2074
rfemur -3.93243 1.66647 18.6028
rtibia 26.5192
rfoot -14.7637 -5.10178
rtoes -3.8691
lfemur -5.3975 -11.3379 -2.01538
ltibia 31.0328
lfoot -2.11066 10.3594
ltoes -13.282
24
root 8.29651 17.8297 -12.9493 215.312 83.6446 217.993
lowerback 11.4151 -0.247524 -1.26811
upperback 1.02385 -0.379986 1.07947
thorax -5.31546 -0.126629 1.904
lowerneck -5.16013 -13.2305 -15.4337
upperneck 32.4311 -19.6565 12.9585
head 15.1949 -8.66911 4.87286
rclavicle 2.06239e-015 6.36111e-015
rhumerus -32.1822 -13.6553 -83.0849
rradius 30.0073
rwrist 8.19703
rhand -16.1072 9.86869
rfingers 7.12502
rthumb 10.0967 -19.8691
lclavicle 2.06239e-015 6.36111e-015
lhumerus -36.327 12.9957 74.6933
lradius 32.8588
lwrist -3.9378
lhand -20.4741 28.1052
lfingers 7.12502
lthumb 5.88213 58.0035
rfemur -3.88281 1.68374 19.1278
rtibia 26.3068
rfoot -14.7187 -5.17841
rtoes -3.39023
lfemur -5.87574 -11.7187 -1.90461
ltibia 31.7029
lfoot -1.28048 11.4816
ltoes -9.89236
25
root 8.29511 17.8331 -12.8597 215.135 83.6378 217.718
lowerback 11.4048 -0.224611 -1.18533
upperback 1.00042 -0.339948 1.07178
thorax -5.33656 -0.10873 1.84295
lowerneck -5.23085 -13.2214 -15.4886
upperneck 32.5008 -19.6105 12.8991
head 15.2342 -8.65622 4.86367
rclavicle -1.16786e-015 -1.55052e-014
rhumerus -32.1773 -13.6473 -82.9207
rradius 30.1575
rwrist 8.61448
rhand -15.8161 10.1489
rfingers 7.12502
rthumb 10.3776 -19.575
lclavicle -1.16786e-015 -1.55052e-014
lhumerus -36.289 12.8113 75.0536
lradius 33.1374
lwrist -3.98172
lhand -20.4336 27.8324
lfingers 7.12502
lthumb 5.92116 57.7297
rfemur -3.94942 1.51273 19.4118
rtibia 26.1416
rfoot -14.6129 -5.07532
rtoes -3.13215
lfemur -6.35257 -11.9543 -2.02268
ltibia 32.3563
lfoot -0.467953 12.5299
ltoes -5.6702
26
root 8.29384 17.8422 -12.77 215.18 83.6302 217.724
lowerback 11.3921 -0.1722 -1.17584
upperback 1.02651 -0.2655 1.11872
thorax -5.30491 -0.0718712 1.87474
lowerneck -5.31188 -13.2077 -15.4355
upperneck 32.5611 -19.5787 12.8667
head 15.2629 -8.63176 4.84637
rclavicle -4.14963e-015 -3.97569e-015
rhumerus -32.0617 -13.258 -82.8514
rradius 30.3042
rwrist 8.38068
rhand -15.5153 10.112
rfingers 7.12502
rthumb 10.6677 -19.5972
lclavicle -4.14963e-015 -3.97569e-015
lhumerus -36.1245 12.7699 75.3996
lradius 33.2457
lwrist -4.32853
lhand -19.9053 27.3594
lfingers 7.12502
lthumb 6.43124 57.2418
rfemur -3.97024 1.54505 19.7431
rtibia 26.058
rfoot -14.5777 -5.0486
rtoes -2.4348
lfemur -6.793 -11.881 -2.14794
ltibia 33.0037
lfoot 0.00640594 13.2608
ltoes -4.25845
27
root 8.29422 17.8477 -12.6836 216.191 83.597 218.75
lowerback 11.4258 -0.111649 -1.04761
upperback 1.0432 -0.165034 1.17
thorax -5.31053 -0.0242815 1.84035
lowerneck -5.30075 -13.1705 -15.259
upperneck 32.5358 -19.5128 12.7773
head 15.1953 -8.59188 4.79544
rclavicle -9.54166e-015 7.55382e-015
rhumerus -31.9818 -12.7899 -82.794
rradius 30.4564
rwrist 8.1254
rhand -15.6593 9.76957
rfingers 7.12502
rthumb 10.5288 -19.9467
lclavicle -9.54166e-015 7.55382e-015
lhumerus -36.012 12.5446 75.7573
lradius 33.4031
lwrist -4.44735
lhand -19.5697 26.8519
lfingers 7.12502
lthumb 6.75523 56.7242
rfemur -3.97148 1.70978 20.2195
rtibia 25.9724
rfoot -14.4056 -5.27742
rtoes -2.24636
lfemur -7.2423 -11.7087 -2.18514
ltibia 33.694
lfoot -0.255141 13.7343
ltoes -3.93932
28
root 8.29296 17.8537 -12.5997 217.337 83.5753 219.914
lowerback 11.5117 -0.041519 -0.828231
upperback 1.05088 -0.0430634 1.17403
thorax -5.35545 0.0316736 1.70177
lowerneck -5.31741 -13.1327 -15.1375
upperneck 32.4443 -19.4732 12.8123
head 15.1344 -8.55784 4.79617
rclavicle -1.31695e-014 3.97569e-016
rhumerus -31.9469 -12.5957 -82.7089
rradius 30.6254
rwrist 8.07114
rhand -16.4657 9.44797
rfingers 7.12502
rthumb 9.75087 -20.3063
lclavicle -1.31695e-014 3.97569e-016
lhumerus -35.8924 12.3122 76.1248
lradius 33.5691
lwrist -4.58865
lhand -19.892 26.834
lfingers 7.12502
lthumb 6.44411 56.7159
rfemur -3.9834 1.87127 20.7154
rtibia 25.858
rfoot -14.1724 -5.56702
rtoes -3.2396
lfemur -7.6432 -11.5992 -2.20739
ltibia 34.4278
lfoot -1.63452 13.7323
ltoes 0.0497231
29
root 8.29428 17.8659 -12.5208 216.865 83.5912 219.44
lowerback 11.5619 -0.0477558 -0.759045
upperback 1.0528 -0.0412971 1.18701
thorax -5.38154 0.0315498 1.67628
lowerneck -5.42797 -13.0709 -15.2002
upperneck 32.4643 -19.374 12.8566
head 15.1644 -8.51147 4.8401
rclavicle -4.62174e-015 2.78299e-015
rhumerus -31.8633 -12.2036 -82.6161
rradius 30.7261
rwrist 7.9326
rhand -16.8561 9.4102
rfingers 7.12502
rthumb 9.37422 -20.3613
lclavicle -4.62174e-015 2.78299e-015
lhumerus -35.8659 12.525 76.3894
lradius 33.7148
lwrist -5.06053
lhand -19.9949 26.7834
lfingers 7.12502
lthumb 6.34469 56.6684
rfemur -3.95916 1.92198 20.9342
rtibia 25.8167
rfoot -14.2098 -5.4689
rtoes -2.01245
lfemur -8.04984 -11.4841 -2.53037
ltibia 35.1082
lfoot -2.9127 13.1594
ltoes -0.559153
30
root 8.29516 17.8724 -12.4485 216.454 83.6457 219.093
lowerback 11.6577 -0.0303414 -0.71267
upperback 1.06479 -0.010647 1.19952
thorax -5.42341 0.0463977 1.65872
lowerneck -5.47907 -13.0308 -15.2592
upperneck 32.5553 -19.2983 12.8465
head 15.2117 -8.48001 4.86213
rclavicle -4.52235e-015 9.93923e-015
rhumerus -31.791 -11.6392 -82.4752
rradius 30.8232
rwrist 7.72191
rhand -16.8133 9.48979
rfingers 7.12502
rthumb 9.4155 -20.2799
lclavicle -4.52235e-015 9.93923e-015
lhumerus -35.8303 12.5705 76.6567
lradius 33.7737
lwrist -5.4078
lhand -19.9175 26.1239
lfingers 7.12502
lthumb 6.41946 56.0066
rfemur -3.90661 1.95016 21.0939
rtibia 25.8603
rfoot -14.3206 -5.244
rtoes 0.459825
lfemur -8.37305 -11.3988 -2.97936
ltibia 35.7643
lfoot -4.19358 12.4099
ltoes -4.18832
